<svg version="1.1" xmlns="http://www.w3.org/2000/svg" style="display: block;" viewBox="0 0 2048 2048" width="1254" height="1254" preserveAspectRatio="none">
<defs>
	<linearGradient id="Gradient1" gradientUnits="userSpaceOnUse" x1="1084.88" y1="895.63" x2="1125.63" y2="838.451">
		<stop class="stop0" offset="0" stop-opacity="1" stop-color="rgb(0,7,73)"/>
		<stop class="stop1" offset="1" stop-opacity="1" stop-color="rgb(36,16,120)"/>
	</linearGradient>
	<linearGradient id="Gradient2" gradientUnits="userSpaceOnUse" x1="1312.51" y1="902.132" x2="1318.67" y2="831.796">
		<stop class="stop0" offset="0" stop-opacity="1" stop-color="rgb(253,121,0)"/>
		<stop class="stop1" offset="1" stop-opacity="1" stop-color="rgb(254,182,7)"/>
	</linearGradient>
	<linearGradient id="Gradient3" gradientUnits="userSpaceOnUse" x1="1316.85" y1="914.809" x2="1313.54" y2="1021.6">
		<stop class="stop0" offset="0" stop-opacity="1" stop-color="rgb(254,147,1)"/>
		<stop class="stop1" offset="1" stop-opacity="1" stop-color="rgb(254,52,21)"/>
	</linearGradient>
	<linearGradient id="Gradient4" gradientUnits="userSpaceOnUse" x1="1097.64" y1="727.495" x2="989.247" y2="789.72">
		<stop class="stop0" offset="0" stop-opacity="1" stop-color="rgb(255,90,29)"/>
		<stop class="stop1" offset="1" stop-opacity="1" stop-color="rgb(241,18,99)"/>
	</linearGradient>
	<linearGradient id="Gradient5" gradientUnits="userSpaceOnUse" x1="1383.98" y1="661.352" x2="1144.43" y2="925.604">
		<stop class="stop0" offset="0" stop-opacity="1" stop-color="rgb(254,205,6)"/>
		<stop class="stop1" offset="1" stop-opacity="1" stop-color="rgb(255,64,29)"/>
	</linearGradient>
</defs>
<path transform="translate(0,0)" fill="rgb(255,255,255)" d="M 0 0 L 2048 0 L 2048 2048 L 0 2048 L 0 0 z"/>
<path transform="translate(0,0)" fill="rgb(255,255,255)" d="M 1082.59 654.308 C 1089.14 649.31 1098.37 644.485 1105.77 640.66 C 1154.47 615.506 1212.47 601.731 1267.04 608.918 C 1327.56 616.587 1382.56 647.956 1419.96 696.137 C 1500.34 801.537 1468.8 948.591 1365.77 1026.17 C 1341.77 1044.16 1314.65 1057.57 1285.78 1065.72 C 1257.73 1074.19 1210.43 1072.74 1180.69 1069.6 C 1167.74 1068.24 1137.65 1059 1124.85 1053.34 C 1122.85 1049.03 1110.87 1047.82 1105.41 1045 C 1100.76 1037.02 1101.69 1020.36 1108.13 1013.72 C 1111.17 1013.19 1119.03 1017.91 1122.42 1019.55 L 1123.85 1018.59 C 1104.1 1009.07 1088.53 1002.05 1068.94 991.61 L 1070.02 990.817 C 1076.96 993.53 1100.16 1008.37 1105.29 1005.96 C 1102.19 991.375 1116.68 990.871 1095.82 980.626 C 1091.25 978.38 1082.16 972.34 1077.82 969.11 L 1078.21 967.543 C 1074.31 963.607 1056.7 952.424 1051.31 948.585 C 1027.34 936.615 1006.71 909.629 975.4 912.06 C 972.016 913.862 970.965 914.01 967.137 914.504 C 961.656 918.794 957.507 923.769 952.177 927.289 L 949.362 925.809 C 946.857 927.054 947.827 926.911 945.206 927.075 C 939.083 919.851 931.014 918.424 922.244 917.263 C 910.173 907.155 904.317 911.808 895.613 893.728 C 886.195 874.165 875.718 853.571 867.378 833.534 C 870.555 826.713 888.626 819.79 889.831 812.367 C 891.525 809.709 940.732 766.719 944.974 763.681 C 964.977 741.603 1056.7 666.656 1082.59 654.308 z"/>
<path transform="translate(0,0)" fill="url(#Gradient5)" d="M 1082.59 654.308 C 1089.14 649.31 1098.37 644.485 1105.77 640.66 C 1154.47 615.506 1212.47 601.731 1267.04 608.918 C 1327.56 616.587 1382.56 647.956 1419.96 696.137 C 1500.34 801.537 1468.8 948.591 1365.77 1026.17 C 1341.77 1044.16 1314.65 1057.57 1285.78 1065.72 C 1257.73 1074.19 1210.43 1072.74 1180.69 1069.6 C 1167.74 1068.24 1137.65 1059 1124.85 1053.34 C 1122.85 1049.03 1110.87 1047.82 1105.41 1045 C 1100.76 1037.02 1101.69 1020.36 1108.13 1013.72 C 1111.17 1013.19 1119.03 1017.91 1122.42 1019.55 L 1123.85 1018.59 C 1104.1 1009.07 1088.53 1002.05 1068.94 991.61 L 1070.02 990.817 C 1076.96 993.53 1100.16 1008.37 1105.29 1005.96 C 1102.19 991.375 1116.68 990.871 1095.82 980.626 C 1091.25 978.38 1082.16 972.34 1077.82 969.11 L 1078.21 967.543 C 1101.27 982.131 1124.32 996.226 1149.59 1006.65 C 1153.95 1008.45 1158.69 1010.06 1162.91 1011.99 C 1186.14 1021.65 1215.22 1025.35 1240.21 1024.46 C 1245.17 1024.28 1254.6 1024.53 1258.6 1021.72 C 1259.3 1017.4 1259.25 1015.87 1259.19 1011.43 C 1259.79 1014.07 1260.23 1018.38 1260.6 1021.2 C 1264.99 1024.65 1275.88 1020.15 1280.96 1018.73 C 1306.5 1011.55 1329.31 999.112 1349.6 982.052 C 1352.28 977.415 1372.88 961.333 1373.11 956.254 C 1386.81 939.471 1398.34 912.006 1401.97 890.624 C 1409.08 848.667 1399.08 809.94 1374.33 775.498 C 1349.08 740.89 1311.1 717.754 1268.77 711.196 C 1210.04 701.951 1171.64 722.859 1126.28 755.744 L 1125.73 755.195 C 1123.39 754.849 1120.2 758.219 1117.46 760.192 C 1113.24 757.523 1065.06 677.313 1062.18 669.695 C 1066.69 666.413 1080.81 657.971 1082.59 654.308 z"/>
<path transform="translate(0,0)" fill="rgb(242,43,48)" d="M 1282.29 1033.62 C 1286.99 1034.52 1295.09 1030.7 1303.3 1027.18 C 1327.55 1016.78 1351.35 998.946 1369.75 979.833 C 1370.31 979.808 1370.87 979.783 1371.42 979.758 C 1372.33 983.907 1374.4 993.584 1376.24 997.021 C 1377.92 1000.14 1383.37 1003.4 1384.74 1007.82 C 1381.78 1010.79 1382.56 1010.16 1379.32 1012.22 C 1373.91 1015.65 1372.46 1019.97 1366.29 1024.02 C 1337.95 1042.63 1317.54 1055.2 1284.38 1064.28 C 1284.91 1065.55 1284.47 1065.05 1285.78 1065.72 C 1257.73 1074.19 1210.43 1072.74 1180.69 1069.6 C 1167.74 1068.24 1137.65 1059 1124.85 1053.34 C 1122.85 1049.03 1110.87 1047.82 1105.41 1045 C 1100.76 1037.02 1101.69 1020.36 1108.13 1013.72 C 1111.17 1013.19 1119.03 1017.91 1122.42 1019.55 L 1123.85 1018.59 C 1168.11 1032.83 1196.34 1045.72 1246.8 1040.09 C 1260.26 1038.59 1269.87 1035.67 1282.29 1033.62 z"/>
<path transform="translate(0,0)" fill="rgb(254,98,85)" d="M 1068.94 991.61 L 1070.02 990.817 C 1076.96 993.53 1100.16 1008.37 1105.29 1005.96 C 1102.19 991.375 1116.68 990.871 1095.82 980.626 C 1091.25 978.38 1082.16 972.34 1077.82 969.11 L 1078.21 967.543 C 1101.27 982.131 1124.32 996.226 1149.59 1006.65 C 1153.95 1008.45 1158.69 1010.06 1162.91 1011.99 C 1186.14 1021.65 1215.22 1025.35 1240.21 1024.46 C 1245.17 1024.28 1254.6 1024.53 1258.6 1021.72 C 1259.3 1017.4 1259.25 1015.87 1259.19 1011.43 C 1259.79 1014.07 1260.23 1018.38 1260.6 1021.2 C 1264.99 1024.65 1275.88 1020.15 1280.96 1018.73 C 1306.5 1011.55 1329.31 999.112 1349.6 982.052 C 1343.53 1000.91 1280.24 1022.1 1259.7 1024.7 C 1261.13 1027.74 1262.85 1032.46 1265.34 1034.38 C 1286.18 1035.75 1336.02 1007.59 1351.82 991.691 C 1353.37 990.135 1352.7 990.193 1354.26 990.709 C 1348.23 1001.04 1313.88 1020.59 1302.38 1025.13 C 1296.85 1027.31 1286.86 1030.99 1282.29 1033.62 C 1269.87 1035.67 1260.26 1038.59 1246.8 1040.09 C 1196.34 1045.72 1168.11 1032.83 1123.85 1018.59 C 1104.1 1009.07 1088.53 1002.05 1068.94 991.61 z"/>
<path transform="translate(0,0)" fill="rgb(147,9,130)" d="M 944.974 763.681 C 964.977 741.603 1056.7 666.656 1082.59 654.308 C 1080.81 657.971 1066.69 666.413 1062.18 669.695 C 1065.06 677.313 1113.24 757.523 1117.46 760.192 C 1120.2 758.219 1123.39 754.849 1125.73 755.195 L 1126.28 755.744 C 1115.33 766.156 1103.47 775.817 1092.34 786.335 C 1063.94 813.159 1036.57 844.007 1008.35 870.588 C 1003.35 875.95 968.959 908.683 968.011 911.457 C 971.507 912.214 971.932 912.105 975.4 912.06 C 972.016 913.862 970.965 914.01 967.137 914.504 C 961.656 918.794 957.507 923.769 952.177 927.289 L 949.362 925.809 C 946.857 927.054 947.827 926.911 945.206 927.075 C 939.083 919.851 931.014 918.424 922.244 917.263 C 910.173 907.155 904.317 911.808 895.613 893.728 C 886.195 874.165 875.718 853.571 867.378 833.534 C 870.555 826.713 888.626 819.79 889.831 812.367 C 891.525 809.709 940.732 766.719 944.974 763.681 z"/>
<path transform="translate(0,0)" fill="url(#Gradient4)" d="M 944.974 763.681 C 964.977 741.603 1056.7 666.656 1082.59 654.308 C 1080.81 657.971 1066.69 666.413 1062.18 669.695 C 1065.06 677.313 1113.24 757.523 1117.46 760.192 C 1120.2 758.219 1123.39 754.849 1125.73 755.195 L 1126.28 755.744 C 1115.33 766.156 1103.47 775.817 1092.34 786.335 C 1063.94 813.159 1036.57 844.007 1008.35 870.588 C 1008.64 863.63 1023.42 855.184 1028.72 847.363 C 1028.77 845.118 1015.4 828.941 1012.61 825.264 C 1000.8 809.718 991.951 796.485 983.999 778.408 C 979.991 769.298 974.703 752.162 969.352 744.516 C 964.294 749.137 950.654 762.892 944.974 763.681 z"/>
<path transform="translate(0,0)" fill="url(#Gradient3)" d="M 1259.19 1011.43 C 1258.6 973.707 1252.25 931.551 1297.53 916.312 C 1312.32 911.366 1328.47 912.479 1342.44 919.405 C 1358.59 927.505 1367.6 939.479 1373.11 956.254 C 1372.88 961.333 1352.28 977.415 1349.6 982.052 C 1329.31 999.112 1306.5 1011.55 1280.96 1018.73 C 1275.88 1020.15 1264.99 1024.65 1260.6 1021.2 C 1260.23 1018.38 1259.79 1014.07 1259.19 1011.43 z"/>
<path transform="translate(0,0)" fill="rgb(1,13,69)" d="M 1051.31 948.585 C 1058.92 932.946 1069.65 921.889 1086.56 916.327 C 1102.13 911.274 1119.09 912.721 1133.58 920.339 C 1169.82 939.673 1163.31 977.395 1162.91 1011.99 C 1158.69 1010.06 1153.95 1008.45 1149.59 1006.65 C 1124.32 996.226 1101.27 982.131 1078.21 967.543 C 1074.31 963.607 1056.7 952.424 1051.31 948.585 z"/>
<path transform="translate(0,0)" fill="url(#Gradient2)" d="M 1306.5 831.85 C 1326.14 826.492 1346.41 837.984 1351.9 857.578 C 1357.39 877.173 1346.03 897.525 1326.48 903.144 C 1306.73 908.817 1286.14 897.33 1280.6 877.549 C 1275.06 857.769 1286.69 837.259 1306.5 831.85 z"/>
<path transform="translate(0,0)" fill="url(#Gradient1)" d="M 1103.24 830.612 C 1123.53 829.206 1141.16 844.446 1142.7 864.732 C 1144.24 885.017 1129.11 902.742 1108.84 904.416 C 1088.37 906.105 1070.45 890.809 1068.89 870.333 C 1067.34 849.856 1082.75 832.03 1103.24 830.612 z"/>
<path transform="translate(0,0)" fill="rgb(1,13,69)" d="M 1177.33 866.607 C 1182.21 864.85 1187.59 867.406 1189.31 872.301 C 1191.04 877.196 1188.45 882.558 1183.54 884.248 C 1178.68 885.922 1173.38 883.36 1171.67 878.512 C 1169.97 873.664 1172.49 868.347 1177.33 866.607 z"/>
<path transform="translate(0,0)" fill="rgb(1,13,69)" d="M 1238.75 866.639 C 1241.97 865.357 1245.64 865.973 1248.27 868.236 C 1250.9 870.499 1252.05 874.036 1251.26 877.413 C 1250.47 880.79 1247.87 883.449 1244.51 884.313 C 1239.75 885.536 1234.86 882.851 1233.34 878.179 C 1231.81 873.507 1234.18 868.456 1238.75 866.639 z"/>
<path transform="translate(0,0)" fill="rgb(1,13,69)" d="M 1208.23 866.519 C 1213.07 864.734 1218.43 867.228 1220.18 872.074 C 1221.93 876.92 1219.4 882.266 1214.54 883.982 C 1209.73 885.682 1204.45 883.181 1202.72 878.383 C 1200.98 873.584 1203.45 868.286 1208.23 866.519 z"/>
<path transform="translate(0,0)" fill="rgb(25,8,121)" d="M 597.019 726.337 C 609.296 677.629 618.38 620.291 665.185 592.322 C 688.517 578.379 709.297 576.109 735.983 576.677 C 745.289 576.875 759.185 574.601 766.251 581.457 C 769.88 589.161 764.393 607.213 762.495 616.314 L 740.911 716.02 C 729.745 768.46 707.251 838.436 773.468 862.989 C 782.792 864.955 786.136 864.869 795.637 865.052 C 838.126 857.4 856.603 838.701 889.831 812.367 C 888.626 819.79 870.555 826.713 867.378 833.534 C 875.718 853.571 886.195 874.165 895.613 893.728 C 904.317 911.808 910.173 907.155 922.244 917.263 C 931.014 918.424 939.083 919.851 945.206 927.075 C 947.827 926.911 946.857 927.054 949.362 925.809 L 952.177 927.289 C 957.507 923.769 961.656 918.794 967.137 914.504 C 970.965 914.01 972.016 913.862 975.4 912.06 C 1006.71 909.629 1027.34 936.615 1051.31 948.585 C 1056.7 952.424 1074.31 963.607 1078.21 967.543 L 1077.82 969.11 C 1082.16 972.34 1091.25 978.38 1095.82 980.626 C 1116.68 990.871 1102.19 991.375 1105.29 1005.96 C 1100.16 1008.37 1076.96 993.53 1070.02 990.817 L 1068.94 991.61 C 1059.37 988.94 1037.65 974.321 1025.11 969.578 L 1023.5 970.132 C 1020.79 968.676 1018.61 967.514 1015.76 966.265 C 1011.91 971.004 1013.74 994.662 1013.25 1001.86 C 1013.08 1004.43 1016.4 1004.39 1016.74 1006.65 C 1015.16 1006.48 1004.61 1002.39 1002.42 1001.44 C 985.337 994.02 976.905 994.479 959.002 995.188 C 904.782 1010.72 857.588 1062.84 798.237 1070.58 C 787.917 1071.93 778.409 1072.12 768.013 1071.86 C 734.498 1073.17 709.236 1064.43 679.923 1048.57 C 673.315 1044.99 655.629 1033.75 650.584 1028.01 C 637.869 1018.68 619.533 996.151 611.495 982.652 C 561.924 899.413 576.297 813.51 597.019 726.337 z"/>
<path transform="translate(0,0)" fill="rgb(54,20,192)" d="M 597.019 726.337 C 609.296 677.629 618.38 620.291 665.185 592.322 C 688.517 578.379 709.297 576.109 735.983 576.677 C 745.289 576.875 759.185 574.601 766.251 581.457 C 769.88 589.161 764.393 607.213 762.495 616.314 L 740.911 716.02 C 729.745 768.46 707.251 838.436 773.468 862.989 C 758.635 866.234 747.551 861.357 734.87 855.245 C 694.371 835.973 667.673 800.812 647.495 762 C 636.627 741.096 629.052 723.726 623.299 700.837 C 621.982 695.595 617.979 688.578 612.831 686.058 C 611.798 686.092 610.765 686.127 609.732 686.161 C 605.697 693.752 602.652 721.786 597.019 726.337 z"/>
<path transform="translate(0,0)" fill="rgb(54,20,192)" d="M 975.4 912.06 C 1006.71 909.629 1027.34 936.615 1051.31 948.585 C 1056.7 952.424 1074.31 963.607 1078.21 967.543 L 1077.82 969.11 C 1082.16 972.34 1091.25 978.38 1095.82 980.626 C 1116.68 990.871 1102.19 991.375 1105.29 1005.96 C 1100.16 1008.37 1076.96 993.53 1070.02 990.817 L 1068.94 991.61 C 1059.37 988.94 1037.65 974.321 1025.11 969.578 L 1023.5 970.132 C 1020.79 968.676 1018.61 967.514 1015.76 966.265 C 1011.91 971.004 1013.74 994.662 1013.25 1001.86 C 1013.08 1004.43 1016.4 1004.39 1016.74 1006.65 C 1015.16 1006.48 1004.61 1002.39 1002.42 1001.44 C 985.337 994.02 976.905 994.479 959.002 995.188 C 904.782 1010.72 857.588 1062.84 798.237 1070.58 C 787.917 1071.93 778.409 1072.12 768.013 1071.86 C 734.498 1073.17 709.236 1064.43 679.923 1048.57 C 673.315 1044.99 655.629 1033.75 650.584 1028.01 C 649.691 1023.73 647.123 1022.09 643.549 1018.59 C 650.673 1021.11 657.862 1024 664.519 1027.21 C 697.873 1043.32 740.687 1043.3 776.072 1034.38 C 780.741 1033.2 785.37 1031.58 790.036 1030.49 C 834.852 1015.56 877.429 984.529 914.21 955.386 C 925.816 946.191 938.888 936.122 949.362 925.809 L 952.177 927.289 C 957.507 923.769 961.656 918.794 967.137 914.504 C 970.965 914.01 972.016 913.862 975.4 912.06 z"/>
<path transform="translate(0,0)" fill="rgb(219,25,115)" d="M 975.4 912.06 C 1006.71 909.629 1027.34 936.615 1051.31 948.585 C 1056.7 952.424 1074.31 963.607 1078.21 967.543 L 1077.82 969.11 C 1082.16 972.34 1091.25 978.38 1095.82 980.626 C 1116.68 990.871 1102.19 991.375 1105.29 1005.96 C 1100.16 1008.37 1076.96 993.53 1070.02 990.817 L 1068.94 991.61 C 1059.37 988.94 1037.65 974.321 1025.11 969.578 C 1005.81 958.084 977.214 948.416 954.672 954.085 C 952.128 955.546 952.172 955.394 949.223 955.832 C 944.656 951.243 944.203 941.439 943.179 934.764 L 952.177 927.289 C 957.507 923.769 961.656 918.794 967.137 914.504 C 970.965 914.01 972.016 913.862 975.4 912.06 z"/>
<path transform="translate(0,0)" fill="rgb(125,12,235)" d="M 949.362 925.809 L 952.177 927.289 L 943.179 934.764 C 944.203 941.439 944.656 951.243 949.223 955.832 C 952.172 955.394 952.128 955.546 954.672 954.085 C 952.283 957.107 952.133 956.954 948.81 958.605 C 932.345 964.776 918.677 974.535 903.998 984.118 C 875.302 1002.85 842.386 1026.3 809.52 1036.12 L 809.622 1035.15 C 814.312 1032.93 819.237 1032.52 821.907 1029.3 C 823.035 1025.19 822.709 1023.31 822.569 1018.97 C 813.455 1022.2 798.596 1031.29 790.036 1030.49 C 834.852 1015.56 877.429 984.529 914.21 955.386 C 925.816 946.191 938.888 936.122 949.362 925.809 z"/>
<path transform="translate(0,0)" fill="rgb(147,9,130)" d="M 954.672 954.085 C 977.214 948.416 1005.81 958.084 1025.11 969.578 L 1023.5 970.132 C 1020.79 968.676 1018.61 967.514 1015.76 966.265 C 1011.91 971.004 1013.74 994.662 1013.25 1001.86 C 1013.08 1004.43 1016.4 1004.39 1016.74 1006.65 C 1015.16 1006.48 1004.61 1002.39 1002.42 1001.44 C 985.337 994.02 976.905 994.479 959.002 995.188 C 966.874 989.743 977.446 995.031 986.162 992.974 C 991.398 984.471 995.004 964.324 990.306 956.794 C 986.894 951.323 953.574 958.772 948.81 958.605 C 952.133 956.954 952.283 957.107 954.672 954.085 z"/>
<path transform="translate(0,0)" fill="rgb(54,20,192)" d="M 889.831 812.367 C 888.626 819.79 870.555 826.713 867.378 833.534 C 875.718 853.571 886.195 874.165 895.613 893.728 C 904.317 911.808 910.173 907.155 922.244 917.263 C 915.174 917.742 869.332 910.773 861.588 905.132 C 850.324 896.925 839.961 876.058 837.289 862.64 C 838.206 859.789 838.479 859.634 838.326 856.711 C 837.712 856.012 837.098 855.313 836.484 854.614 C 826.074 857.878 806.083 869.381 795.637 865.052 C 838.126 857.4 856.603 838.701 889.831 812.367 z"/>
<path transform="translate(0,0)" fill="rgb(1,13,69)" d="M 1616.6 1329.36 C 1645.67 1325.3 1679.88 1335.73 1700.53 1356.9 C 1725.19 1382.17 1732.13 1413.1 1732.02 1447.37 L 1557.48 1447.38 C 1566.74 1494.94 1601.26 1517.83 1649.83 1506.76 C 1662.7 1503.83 1673.06 1496.31 1682.4 1487.19 C 1684.92 1484.04 1687.64 1480.1 1690.05 1476.79 L 1726.89 1476.76 C 1723.23 1484.87 1719.85 1491.23 1714.55 1498.38 C 1698.06 1520.52 1673.35 1535.08 1645.99 1538.77 C 1501.26 1559.7 1478.89 1346.29 1616.6 1329.36 z"/>
<path transform="translate(0,0)" fill="rgb(255,255,255)" d="M 1625.13 1359.39 C 1665.64 1357.19 1689.96 1381.52 1699.69 1418.8 L 1633.5 1418.8 L 1557.98 1418.77 C 1565.55 1382.11 1588 1362.47 1625.13 1359.39 z"/>
<path transform="translate(0,0)" fill="rgb(1,13,69)" d="M 1381.51 1329.35 C 1410.34 1325.4 1444.11 1335.54 1464.78 1356.32 C 1489.91 1381.58 1496.88 1412.84 1496.9 1447.37 L 1322.43 1447.38 C 1323.39 1452.7 1324.27 1457.62 1326.02 1462.74 C 1344.08 1515.8 1409.4 1523.98 1447.2 1487.26 L 1454.92 1476.78 L 1491.55 1476.77 C 1488.44 1484.42 1484.39 1491.64 1479.48 1498.28 C 1445.44 1544.46 1375.23 1553.76 1329.35 1520.21 C 1283.23 1486.48 1277.26 1410.45 1311.5 1366.4 C 1329.36 1343.42 1353.17 1332.79 1381.51 1329.35 z"/>
<path transform="translate(0,0)" fill="rgb(255,255,255)" d="M 1389.83 1359.4 C 1430.39 1357.18 1454.81 1381.44 1464.49 1418.79 L 1398.5 1418.8 L 1322.75 1418.78 C 1330.6 1382.2 1352.51 1362.48 1389.83 1359.4 z"/>
<path transform="translate(0,0)" fill="rgb(1,13,69)" d="M 961.864 1338.35 C 1010.35 1331.98 1054.79 1366.21 1061.01 1414.72 C 1067.23 1463.23 1032.86 1507.57 984.332 1513.64 C 936.013 1519.68 891.911 1485.49 885.72 1437.19 C 879.529 1388.89 913.582 1344.68 961.864 1338.35 z"/>
<path transform="translate(0,0)" fill="rgb(252,93,0)" d="M 755.176 1338.29 C 803.771 1332.1 848.126 1366.62 854.047 1415.25 C 859.969 1463.88 825.196 1508.05 776.536 1513.7 C 728.253 1519.31 684.507 1484.86 678.632 1436.61 C 672.757 1388.36 706.958 1344.43 755.176 1338.29 z"/>
<path transform="translate(0,0)" fill="rgb(125,12,235)" d="M 640.59 401.391 C 650.74 383.622 670.177 370.227 689.844 364.874 C 736.866 352.074 784.132 379.064 797.194 425.946 C 802.7 445.708 798.713 486.323 782.8 500.449 C 757.514 538.351 705.905 546.061 667.881 522.788 C 648.018 510.451 633.89 490.707 628.624 467.926 C 622.98 444.135 627.928 421.904 640.59 401.391 z"/>
<path transform="translate(0,0)" fill="rgb(54,20,192)" d="M 640.59 401.391 L 641.397 403.351 C 640.263 405.666 639.201 407.796 637.963 410.069 C 654.775 420.11 656.929 430.046 678.286 432.67 C 689.166 434.007 708.231 453.354 718.343 458.959 C 731.344 466.98 742.247 476.142 755.086 484.199 C 760.771 488.037 772.379 501.219 777.606 504.096 C 779.942 501.881 779.68 501.426 782.8 500.449 C 757.514 538.351 705.905 546.061 667.881 522.788 C 648.018 510.451 633.89 490.707 628.624 467.926 C 622.98 444.135 627.928 421.904 640.59 401.391 z"/>
<path transform="translate(0,0)" fill="rgb(1,13,69)" d="M 1098.1 1247.98 L 1130.83 1247.97 L 1130.69 1417.99 C 1211.38 1418.88 1205.58 1405.24 1230.5 1333.73 L 1265.21 1333.85 L 1250.78 1373.78 C 1241.15 1400.29 1235.16 1418.44 1211.78 1435.39 C 1225.83 1458.35 1240.91 1481.61 1255.29 1504.43 L 1274.58 1535.04 L 1235.85 1535.14 L 1180.42 1446.17 C 1163.9 1448.8 1147.51 1448.13 1130.77 1448.11 L 1130.81 1535.07 L 1098.08 1535.12 L 1098.1 1247.98 z"/>
<path transform="translate(0,0)" fill="rgb(252,93,0)" d="M 524.302 1333.8 C 533.474 1333.45 542.294 1333.63 551.456 1333.77 C 552.538 1345.31 553.425 1356.76 555.419 1368.18 C 578.216 1333.25 603.954 1333.63 642.018 1333.59 L 642.085 1364 C 599.305 1363.9 569.114 1367.26 559.271 1417.03 C 556.457 1433.97 556.94 1454.27 556.971 1471.59 L 557.146 1535.1 L 524.193 1535.11 L 524.302 1333.8 z"/>
<path transform="translate(0,0)" fill="rgb(252,93,0)" d="M 431.947 1333.51 C 442.586 1333.47 453.226 1333.52 463.864 1333.65 C 464.719 1400.23 463.964 1468.44 463.983 1535.15 L 431.115 1535.06 L 431.115 1392.07 C 431.114 1381.9 430.497 1340.13 431.947 1333.51 z"/>
<path transform="translate(0,0)" fill="rgb(173,4,97)" d="M 1016.74 1006.65 C 1016.4 1004.39 1013.08 1004.43 1013.25 1001.86 C 1013.74 994.662 1011.91 971.004 1015.76 966.265 C 1018.61 967.514 1020.79 968.676 1023.5 970.132 L 1025.11 969.578 C 1037.65 974.321 1059.37 988.94 1068.94 991.61 C 1088.53 1002.05 1104.1 1009.07 1123.85 1018.59 L 1122.42 1019.55 C 1119.03 1017.91 1111.17 1013.19 1108.13 1013.72 C 1101.69 1020.36 1100.76 1037.02 1105.41 1045 C 1110.87 1047.82 1122.85 1049.03 1124.85 1053.34 C 1109.9 1049.77 1032.4 1015.23 1016.74 1006.65 z"/>
<path transform="translate(0,0)" fill="rgb(252,93,0)" d="M 744.6 1519.11 C 764.818 1518.16 785.345 1516.11 803.518 1526.07 C 835.432 1543.56 849.808 1579.93 853.246 1614.56 C 853.926 1621.41 857.3 1634.01 847.351 1634.94 C 845.733 1633.9 843.883 1632.72 843.734 1630.47 C 840.88 1587.5 830.376 1546.52 785.956 1530.56 C 732.517 1517.33 699.375 1555.25 690.855 1604.16 C 689.505 1611.91 690.76 1627.97 686.685 1633.74 C 683.448 1635.51 685.174 1635.14 681.266 1634.54 C 677.481 1631.29 677.577 1626.16 677.948 1621.51 C 680.222 1593.05 687.607 1564.79 707.061 1543.06 C 718.528 1530.26 728.891 1524.94 744.6 1519.11 z"/>
<path transform="translate(0,0)" fill="rgb(0,0,0)" d="M 951.393 1519.23 C 970.71 1517.99 993.179 1516.39 1010.08 1525.78 C 1033.94 1539.03 1046.7 1560 1054.7 1585.58 C 1057.59 1594.81 1063.7 1625.5 1059.5 1633.42 C 1056.61 1635.42 1058.18 1634.95 1054.62 1634.81 C 1053 1633.69 1050.76 1632.24 1050.62 1629.94 C 1048 1587.8 1037.03 1545.99 993.149 1530.63 C 938.752 1517.5 906.338 1555.2 897.605 1605.15 C 896.331 1612.43 897.757 1628.44 893.652 1633.68 C 890.094 1635.2 891.845 1635.04 888.254 1634.49 C 887.284 1633.63 885.684 1632.15 885.61 1630.76 C 883.758 1596.02 896.442 1555.67 924.463 1533.34 C 933.012 1526.53 941.231 1522.91 951.393 1519.23 z"/>
<path transform="translate(0,0)" fill="rgb(1,13,69)" d="M 443.089 1249.91 C 457.604 1246.49 472.155 1255.46 475.61 1269.97 C 479.065 1284.48 470.119 1299.04 455.616 1302.53 C 441.075 1306.02 426.462 1297.04 422.999 1282.5 C 419.535 1267.95 428.535 1253.35 443.089 1249.91 z"/>
<path transform="translate(0,0)" fill="rgb(252,93,0)" d="M 1261.88 1711.31 C 1267.34 1709.28 1273.47 1710.41 1277.85 1714.26 C 1282.23 1718.1 1284.14 1724.04 1282.83 1729.72 C 1281.53 1735.39 1277.21 1739.9 1271.6 1741.44 C 1263.41 1743.7 1254.91 1739.1 1252.31 1731.03 C 1249.7 1722.95 1253.92 1714.26 1261.88 1711.31 z"/>
<path transform="translate(0,0)" fill="rgb(255,255,255)" d="M 1266.21 1717.43 C 1270.87 1716.79 1275.21 1719.91 1276.08 1724.53 C 1276.96 1729.15 1274.06 1733.64 1269.5 1734.75 C 1266.33 1735.52 1262.99 1734.48 1260.83 1732.05 C 1258.66 1729.61 1258.01 1726.18 1259.13 1723.12 C 1260.26 1720.07 1262.98 1717.88 1266.21 1717.43 z"/>
<path transform="translate(0,0)" fill="rgb(1,13,69)" d="M 806.964 1711.32 C 812.346 1709.43 818.329 1710.62 822.589 1714.41 C 826.848 1718.2 828.714 1724.01 827.462 1729.57 C 826.209 1735.13 822.035 1739.58 816.561 1741.18 C 808.401 1743.57 799.825 1739.02 797.223 1730.92 C 794.622 1722.83 798.942 1714.14 806.964 1711.32 z"/>
<path transform="translate(0,0)" fill="rgb(255,255,255)" d="M 809.605 1717.53 C 812.697 1716.61 816.043 1717.43 818.365 1719.67 C 820.686 1721.91 821.624 1725.22 820.821 1728.34 C 820.018 1731.47 817.598 1733.92 814.484 1734.76 C 809.75 1736.04 804.868 1733.27 803.532 1728.55 C 802.196 1723.83 804.903 1718.92 809.605 1717.53 z"/>
<path transform="translate(0,0)" fill="rgb(252,93,0)" d="M 1065.05 1724.95 C 1065.68 1733.15 1059.84 1740.43 1051.71 1741.62 C 1043.57 1742.8 1035.91 1737.48 1034.17 1729.45 C 1032.43 1721.41 1037.21 1713.4 1045.11 1711.12 C 1053.01 1708.83 1061.33 1713.05 1064.15 1720.78 C 1064.64 1722.12 1064.94 1723.53 1065.05 1724.95 z"/>
<path transform="translate(0,0)" fill="rgb(255,255,255)" d="M 1065.05 1724.95 C 1060.66 1724.81 1052.45 1724.27 1048.45 1724.98 L 1047.49 1726.95 L 1048.29 1728.39 C 1051.37 1729.53 1053.27 1730.11 1056.45 1730.98 L 1056.35 1732.24 C 1044.55 1740.71 1036.62 1728.41 1042.9 1719.41 C 1047.33 1713.08 1056.07 1720.79 1064.15 1720.78 C 1064.64 1722.12 1064.94 1723.53 1065.05 1724.95 z"/>
<path transform="translate(0,0)" fill="rgb(252,93,0)" d="M 1585.92 1711.23 C 1594.12 1710.98 1599.83 1710.32 1607.31 1714.67 C 1616.99 1720.31 1615.07 1729.59 1608.91 1737.36 C 1600.6 1742.16 1595.54 1741.1 1585.92 1740.97 L 1585.92 1711.23 z"/>
<path transform="translate(0,0)" fill="rgb(255,255,255)" d="M 1592.98 1717.57 C 1604.92 1717.55 1609.29 1721.68 1603.78 1733.3 C 1600.61 1734.3 1597.54 1735.29 1594.57 1734.02 C 1591.67 1730.49 1592.8 1722.47 1592.98 1717.57 z"/>
<path transform="translate(0,0)" fill="rgb(1,13,69)" d="M 634.106 1711.21 C 651.467 1710.76 672.256 1717.18 656.605 1737.47 C 648.727 1741.89 643.078 1741.03 634.042 1741.02 L 634.106 1711.21 z"/>
<path transform="translate(0,0)" fill="rgb(255,255,255)" d="M 640.938 1717.05 C 652.429 1717.79 657.501 1721.48 651.985 1733.05 C 647.764 1734.49 645.274 1736.09 641.549 1733.19 C 639.734 1729.02 640.701 1721.94 640.938 1717.05 z"/>
<path transform="translate(0,0)" fill="rgb(252,93,0)" d="M 1355.19 1710.37 C 1363.89 1711.57 1368.79 1721.85 1373.61 1728.9 C 1373.94 1723.19 1371.7 1715.06 1376.2 1711.15 L 1378.55 1711.76 C 1382.38 1717.11 1380.86 1733.9 1380.81 1741.27 C 1371.71 1740.87 1367.22 1730.76 1361.93 1723.57 C 1361.87 1728.96 1362.94 1734.3 1361.31 1739.23 C 1358.75 1741.53 1360.29 1740.83 1356.27 1740.74 C 1353.67 1736.96 1355.03 1716.13 1355.19 1710.37 z"/>
<path transform="translate(0,0)" fill="rgb(252,93,0)" d="M 1305.76 1710.49 C 1314.62 1711.79 1319.35 1721.83 1324.27 1729.01 C 1324.1 1724.34 1323.14 1715.24 1325.5 1711.66 C 1329.21 1711.27 1327.73 1710.73 1330.47 1712.24 C 1332.01 1718.87 1331.35 1733.73 1331.3 1741.39 C 1321.96 1740.44 1317.74 1730.75 1312.53 1723.29 C 1312.62 1728.6 1313.46 1737.14 1310.54 1741.29 C 1307.66 1741.82 1309.06 1741.97 1306.33 1740.25 C 1304.55 1732.98 1305.51 1718.64 1305.76 1710.49 z"/>
<path transform="translate(0,0)" fill="rgb(1,13,69)" d="M 602.978 1729.33 C 603.013 1723.71 601.442 1716.02 604.649 1711.89 C 607.97 1710.94 606.497 1710.73 609.259 1712.06 C 610.393 1717.27 609.816 1735.29 609.715 1741.58 C 600.709 1740.56 595.881 1730.16 590.951 1722.87 C 591.038 1727.86 591.933 1736.84 589.309 1740.58 C 585.67 1740.99 587.106 1741.54 584.579 1739.83 C 583.368 1732.06 584.07 1718.77 584.242 1710.51 C 592.662 1711.36 598.289 1722.52 602.978 1729.33 z"/>
<path transform="translate(0,0)" fill="rgb(1,13,69)" d="M 850.346 1711.22 C 853.196 1711.13 858.465 1710.79 861.136 1711.34 C 874.327 1714.03 881.266 1725.32 865.783 1732.09 C 862.837 1732.46 859.109 1732.34 857.35 1734.03 C 856.719 1737.5 856.748 1739.85 854.303 1742.28 C 847.456 1740.7 850.283 1718.18 850.346 1711.22 z"/>
<path transform="translate(0,0)" fill="rgb(255,255,255)" d="M 857.054 1716.77 C 860.807 1717.07 862.851 1716.8 865.743 1719.15 C 867.193 1722.23 866.734 1723.03 866.072 1726.36 C 862.962 1726.84 861.14 1727.45 858.208 1726.35 C 856.356 1723.07 857.041 1720.95 857.054 1716.77 z"/>
<path transform="translate(0,0)" fill="rgb(1,13,69)" d="M 710.303 1711.23 C 713.144 1711.13 718.476 1710.78 721.136 1711.33 C 734.274 1714.06 741.358 1725.28 725.791 1732.07 C 722.756 1732.41 720.606 1732.76 717.592 1733.33 C 717.017 1737.02 717.023 1740.63 713.505 1742.31 C 708.047 1739.67 710.269 1717.78 710.303 1711.23 z"/>
<path transform="translate(0,0)" fill="rgb(255,255,255)" d="M 717.046 1716.79 C 720.62 1717.02 722.282 1716.8 725.309 1718.72 C 727.156 1722.62 726.602 1721.34 726.089 1726.24 C 723.007 1726.76 721.144 1727.41 718.231 1726.34 C 716.32 1723.07 717.028 1721.03 717.046 1716.79 z"/>
<path transform="translate(0,0)" fill="rgb(252,93,0)" d="M 1210.08 1711.14 C 1218.05 1710.31 1227.31 1711.26 1229.53 1720.76 C 1223.51 1722.62 1216.07 1714.49 1208.23 1720.76 C 1204.81 1729.29 1209.74 1736.78 1219.63 1734.12 L 1220.85 1732.94 C 1223.7 1730.21 1224.5 1729.84 1227.88 1729.92 L 1228.93 1731.29 C 1228.09 1739.21 1218.75 1743.14 1211.99 1741.32 C 1195.65 1736.91 1196.95 1719.25 1210.08 1711.14 z"/>
<path transform="translate(0,0)" fill="rgb(252,93,0)" d="M 1455.99 1710.94 C 1463.15 1710.46 1473.75 1712.02 1475.17 1720.86 C 1470.84 1722.28 1464.04 1717.45 1456.6 1718.43 C 1448.49 1723.75 1453.47 1742.26 1468.59 1731.43 L 1469.62 1730.09 C 1472.6 1729.24 1471.14 1729.23 1474.14 1730.2 L 1474.46 1732.4 C 1472.24 1739.66 1463.1 1743.63 1457.06 1741.53 C 1441.02 1735.95 1442.43 1718.41 1455.99 1710.94 z"/>
<path transform="translate(0,0)" fill="rgb(252,93,0)" d="M 1404.34 1711.14 C 1409.62 1711.07 1415.52 1710.89 1420.79 1711.14 C 1423.68 1711.28 1423.18 1711.64 1424.99 1713.88 L 1424.34 1715.57 C 1420.31 1717.4 1416.37 1717.18 1411.87 1717.42 C 1410.66 1719.15 1411.14 1720.43 1411.11 1723.03 C 1415.38 1722.84 1418.36 1722.14 1421.83 1724.35 L 1422.7 1726.25 C 1419.13 1730.29 1416.3 1729.12 1411.06 1728.87 C 1411.06 1731.35 1411.19 1731.88 1411.52 1734.35 C 1414.62 1735.71 1419.25 1734.86 1423.12 1735.19 C 1425 1737.57 1424.55 1736.22 1424.27 1739.44 C 1421.34 1741.97 1409.39 1740.98 1404.34 1740.99 C 1404.12 1731.26 1404.32 1720.92 1404.34 1711.14 z"/>
<path transform="translate(0,0)" fill="rgb(252,93,0)" d="M 1543.5 1711.15 C 1549.59 1711.09 1555.86 1710.82 1561.87 1711.55 C 1563.84 1713.93 1563.48 1712.59 1563.46 1715.49 C 1559.4 1718.34 1553.71 1715.57 1550.16 1718.69 C 1550.25 1721.74 1549.99 1720.24 1551.85 1723.13 C 1557.41 1723.04 1557.24 1722.17 1561.29 1724.54 L 1561.88 1726.32 C 1558.47 1730.05 1556.74 1729.12 1551.84 1728.67 C 1550.07 1731.23 1550.62 1729.81 1550.51 1733.19 C 1554.97 1736.8 1561.74 1733.84 1564.65 1738.02 L 1563.48 1739.84 C 1560.81 1741.64 1547.72 1740.99 1543.58 1740.98 C 1543.25 1731.34 1543.48 1720.85 1543.5 1711.15 z"/>
<path transform="translate(0,0)" fill="rgb(252,93,0)" d="M 1551.85 1723.13 C 1557.41 1723.04 1557.24 1722.17 1561.29 1724.54 L 1561.88 1726.32 C 1558.47 1730.05 1556.74 1729.12 1551.84 1728.67 C 1550.14 1726.75 1551.22 1725.23 1551.85 1723.13 z"/>
<path transform="translate(0,0)" fill="rgb(252,93,0)" d="M 1087.08 1711.23 C 1093.73 1711.09 1103 1709.5 1107.07 1713.42 L 1107.01 1715.54 C 1103.85 1717.78 1100.28 1716.93 1095.44 1717.21 C 1093.47 1719.24 1094.14 1719.36 1093.92 1723.08 C 1098.32 1722.89 1101.38 1722.15 1104.8 1724.57 L 1105.65 1726.28 C 1102.44 1730.16 1099.79 1729.1 1094.95 1728.8 C 1093.73 1731.14 1093.84 1730.99 1094.04 1733.65 C 1098.76 1736.52 1101.52 1733.64 1107.18 1736.14 C 1108.01 1738.77 1107.89 1737.39 1106.7 1740.38 C 1103.49 1741.45 1091.25 1740.88 1087.07 1740.82 L 1087.08 1711.23 z"/>
<path transform="translate(0,0)" fill="rgb(1,13,69)" d="M 755.856 1711.24 C 761.714 1711.14 771.745 1709.62 775.625 1713.74 L 774.782 1716.01 C 769.998 1718.71 765.362 1715.18 761.973 1718.76 C 763.541 1722.73 772.704 1723.64 774.266 1727.39 C 769.374 1729.58 766.259 1727.82 761.02 1730.14 L 762.565 1734.3 C 767.978 1737.47 772.18 1731.84 775.857 1737.51 L 775.271 1739.57 C 771.581 1741.85 760.909 1740.98 755.644 1741 L 755.856 1711.24 z"/>
<path transform="translate(0,0)" fill="rgb(1,13,69)" d="M 937.076 1711.25 C 942.673 1711.19 953.819 1709.53 956.569 1713.94 L 956.006 1716.07 C 953.402 1717.87 949.46 1716.39 944.505 1717.27 C 942.996 1719.86 943.495 1718.48 943.555 1721.63 C 946.73 1723.78 949.975 1723.21 954.359 1723.48 L 955.193 1724.95 C 953.918 1732.1 949.998 1725.75 942.074 1731.32 C 943.369 1733.45 942.893 1732.81 944.734 1734.5 C 949.742 1734.84 954.004 1735.13 957.531 1739.06 L 956.539 1740.09 C 950.148 1741.25 943.506 1740.99 936.99 1741.01 L 937.076 1711.25 z"/>
<path transform="translate(0,0)" fill="rgb(1,13,69)" d="M 512.312 1711.26 C 516.44 1711.19 526.253 1710.68 529.664 1711.67 C 531.634 1714.53 531.342 1713.04 530.923 1716.2 C 527.359 1718.1 525.622 1716.55 520.19 1717.36 C 518.591 1719.86 519.189 1719.93 519.225 1723.47 L 520.61 1724.8 C 527.548 1724.77 528.592 1723.44 530.864 1729.79 C 528.489 1730.81 523.51 1730.56 519.646 1731.33 C 519.166 1735.69 519.306 1739.44 516.308 1742.1 C 514.19 1741.81 514.784 1741.65 512.619 1739.94 C 511.721 1734.7 512.258 1717.43 512.312 1711.26 z"/>
<path transform="translate(0,0)" fill="rgb(252,93,0)" d="M 1127.62 1711.34 C 1135.86 1711.22 1143.77 1711.12 1152 1711.33 C 1154.11 1713.81 1153.44 1712.35 1153.5 1716.1 C 1150.8 1719.52 1151.19 1716.88 1144.6 1718.35 C 1143.48 1721.93 1143.92 1727.31 1143.94 1731.31 C 1144.12 1734.75 1144.46 1736.65 1143.5 1740 C 1141.08 1741.73 1142.49 1741.2 1138.79 1740.63 C 1132.7 1733.78 1140.74 1726.03 1135.89 1718.2 C 1133.19 1717.66 1131.64 1717.73 1128.94 1717.7 C 1127.22 1715.74 1127.81 1714.68 1127.62 1711.34 z"/>
<path transform="translate(0,0)" fill="rgb(252,93,0)" d="M 1496.19 1711.49 C 1503.32 1711.14 1512.21 1711.18 1519.5 1711.29 C 1521.34 1711.32 1522.27 1713.25 1523.15 1714.58 L 1522.56 1715.95 C 1519.41 1717.93 1516.32 1717.99 1512.58 1718.53 C 1511.92 1721.78 1512.18 1730.49 1512.18 1734.25 L 1512.07 1739.54 C 1509.72 1741.59 1511.11 1740.89 1507.48 1741.05 L 1505.76 1739.35 C 1504.07 1732.4 1507.59 1721.84 1503.71 1717.73 C 1500.98 1717.84 1499.99 1717.84 1497.29 1717.57 C 1495.42 1714.75 1496.02 1715.6 1496.19 1711.49 z"/>
<path transform="translate(0,0)" fill="rgb(1,13,69)" d="M 896.045 1710.31 L 900.536 1711.31 C 903.852 1714.99 902.389 1728.99 902.318 1734.76 C 906.336 1734.6 909.117 1734.3 913.067 1734.92 C 915.878 1737.18 914.993 1736.21 915.641 1740.91 L 895.82 1740.99 C 895.721 1730.53 895.659 1720.79 896.045 1710.31 z"/>
<path transform="translate(0,0)" fill="rgb(1,13,69)" d="M 553.773 1710.86 C 556.208 1710.96 556.377 1711.03 558.744 1711.68 C 561.591 1716.29 560.259 1734.74 560.216 1741.32 L 555.548 1740.72 C 551.871 1736.34 553.623 1717.35 553.773 1710.86 z"/>
<path transform="translate(0,0)" fill="rgb(1,13,69)" d="M 979.346 1733.46 C 981.582 1733.79 981.992 1733.98 984.172 1734.65 C 988.706 1740.02 986.219 1743.34 981.843 1747.7 L 980.486 1746.19 C 981.917 1739.58 977.093 1741.63 979.346 1733.46 z"/>
</svg>
