<svg version="1.1" xmlns="http://www.w3.org/2000/svg" viewBox="542 239 960 960" preserveAspectRatio="xMidYMid meet">
<defs>
	<linearGradient id="Gradient1" gradientUnits="userSpaceOnUse" x1="1084.88" y1="895.63" x2="1125.63" y2="838.451">
		<stop offset="0" stop-opacity="1" stop-color="rgb(0,7,73)"/>
		<stop offset="1" stop-opacity="1" stop-color="rgb(36,16,120)"/>
	</linearGradient>
	<linearGradient id="Gradient2" gradientUnits="userSpaceOnUse" x1="1312.51" y1="902.132" x2="1318.67" y2="831.796">
		<stop offset="0" stop-opacity="1" stop-color="rgb(253,121,0)"/>
		<stop offset="1" stop-opacity="1" stop-color="rgb(254,182,7)"/>
	</linearGradient>
	<linearGradient id="Gradient3" gradientUnits="userSpaceOnUse" x1="1316.85" y1="914.809" x2="1313.54" y2="1021.6">
		<stop offset="0" stop-opacity="1" stop-color="rgb(254,147,1)"/>
		<stop offset="1" stop-opacity="1" stop-color="rgb(254,52,21)"/>
	</linearGradient>
	<linearGradient id="Gradient4" gradientUnits="userSpaceOnUse" x1="1097.64" y1="727.495" x2="989.247" y2="789.72">
		<stop offset="0" stop-opacity="1" stop-color="rgb(255,90,29)"/>
		<stop offset="1" stop-opacity="1" stop-color="rgb(241,18,99)"/>
	</linearGradient>
	<linearGradient id="Gradient5" gradientUnits="userSpaceOnUse" x1="1383.98" y1="661.352" x2="1144.43" y2="925.604">
		<stop offset="0" stop-opacity="1" stop-color="rgb(254,205,6)"/>
		<stop offset="1" stop-opacity="1" stop-color="rgb(255,64,29)"/>
	</linearGradient>
</defs>
<path fill="rgb(255,255,255)" d="M 1082.59 654.308 C 1089.14 649.31 1098.37 644.485 1105.77 640.66 C 1154.47 615.506 1212.47 601.731 1267.04 608.918 C 1327.56 616.587 1382.56 647.956 1419.96 696.137 C 1500.34 801.537 1468.8 948.591 1365.77 1026.17 C 1341.77 1044.16 1314.65 1057.57 1285.78 1065.72 C 1257.73 1074.19 1210.43 1072.74 1180.69 1069.6 C 1167.74 1068.24 1137.65 1059 1124.85 1053.34 C 1122.85 1049.03 1110.87 1047.82 1105.41 1045 C 1100.76 1037.02 1101.69 1020.36 1108.13 1013.72 C 1111.17 1013.19 1119.03 1017.91 1122.42 1019.55 L 1123.85 1018.59 C 1104.1 1009.07 1088.53 1002.05 1068.94 991.61 L 1070.02 990.817 C 1076.96 993.53 1100.16 1008.37 1105.29 1005.96 C 1102.19 991.375 1116.68 990.871 1095.82 980.626 C 1091.25 978.38 1082.16 972.34 1077.82 969.11 L 1078.21 967.543 C 1074.31 963.607 1056.7 952.424 1051.31 948.585 C 1027.34 936.615 1006.71 909.629 975.4 912.06 C 972.016 913.862 970.965 914.01 967.137 914.504 C 961.656 918.794 957.507 923.769 952.177 927.289 L 949.362 925.809 C 946.857 927.054 947.827 926.911 945.206 927.075 C 939.083 919.851 931.014 918.424 922.244 917.263 C 910.173 907.155 904.317 911.808 895.613 893.728 C 886.195 874.165 875.718 853.571 867.378 833.534 C 870.555 826.713 888.626 819.79 889.831 812.367 C 891.525 809.709 940.732 766.719 944.974 763.681 C 964.977 741.603 1056.7 666.656 1082.59 654.308 z"/>
<path fill="url(#Gradient5)" d="M 1082.59 654.308 C 1089.14 649.31 1098.37 644.485 1105.77 640.66 C 1154.47 615.506 1212.47 601.731 1267.04 608.918 C 1327.56 616.587 1382.56 647.956 1419.96 696.137 C 1500.34 801.537 1468.8 948.591 1365.77 1026.17 C 1341.77 1044.16 1314.65 1057.57 1285.78 1065.72 C 1257.73 1074.19 1210.43 1072.74 1180.69 1069.6 C 1167.74 1068.24 1137.65 1059 1124.85 1053.34 C 1122.85 1049.03 1110.87 1047.82 1105.41 1045 C 1100.76 1037.02 1101.69 1020.36 1108.13 1013.72 C 1111.17 1013.19 1119.03 1017.91 1122.42 1019.55 L 1123.85 1018.59 C 1104.1 1009.07 1088.53 1002.05 1068.94 991.61 L 1070.02 990.817 C 1076.96 993.53 1100.16 1008.37 1105.29 1005.96 C 1102.19 991.375 1116.68 990.871 1095.82 980.626 C 1091.25 978.38 1082.16 972.34 1077.82 969.11 L 1078.21 967.543 C 1101.27 982.131 1124.32 996.226 1149.59 1006.65 C 1153.95 1008.45 1158.69 1010.06 1162.91 1011.99 C 1186.14 1021.65 1215.22 1025.35 1240.21 1024.46 C 1245.17 1024.28 1254.6 1024.53 1258.6 1021.72 C 1259.3 1017.4 1259.25 1015.87 1259.19 1011.43 C 1259.79 1014.07 1260.23 1018.38 1260.6 1021.2 C 1264.99 1024.65 1275.88 1020.15 1280.96 1018.73 C 1306.5 1011.55 1329.31 999.112 1349.6 982.052 C 1352.28 977.415 1372.88 961.333 1373.11 956.254 C 1386.81 939.471 1398.34 912.006 1401.97 890.624 C 1409.08 848.667 1399.08 809.94 1374.33 775.498 C 1349.08 740.89 1311.1 717.754 1268.77 711.196 C 1210.04 701.951 1171.64 722.859 1126.28 755.744 L 1125.73 755.195 C 1123.39 754.849 1120.2 758.219 1117.46 760.192 C 1113.24 757.523 1065.06 677.313 1062.18 669.695 C 1066.69 666.413 1080.81 657.971 1082.59 654.308 z"/>
<path fill="rgb(242,43,48)" d="M 1282.29 1033.62 C 1286.99 1034.52 1295.09 1030.7 1303.3 1027.18 C 1327.55 1016.78 1351.35 998.946 1369.75 979.833 C 1370.31 979.808 1370.87 979.783 1371.42 979.758 C 1372.33 983.907 1374.4 993.584 1376.24 997.021 C 1377.92 1000.14 1383.37 1003.4 1384.74 1007.82 C 1381.78 1010.79 1382.56 1010.16 1379.32 1012.22 C 1373.91 1015.65 1372.46 1019.97 1366.29 1024.02 C 1337.95 1042.63 1317.54 1055.2 1284.38 1064.28 C 1284.91 1065.55 1284.47 1065.05 1285.78 1065.72 C 1257.73 1074.19 1210.43 1072.74 1180.69 1069.6 C 1167.74 1068.24 1137.65 1059 1124.85 1053.34 C 1122.85 1049.03 1110.87 1047.82 1105.41 1045 C 1100.76 1037.02 1101.69 1020.36 1108.13 1013.72 C 1111.17 1013.19 1119.03 1017.91 1122.42 1019.55 L 1123.85 1018.59 C 1168.11 1032.83 1196.34 1045.72 1246.8 1040.09 C 1260.26 1038.59 1269.87 1035.67 1282.29 1033.62 z"/>
<path fill="rgb(254,98,85)" d="M 1068.94 991.61 L 1070.02 990.817 C 1076.96 993.53 1100.16 1008.37 1105.29 1005.96 C 1102.19 991.375 1116.68 990.871 1095.82 980.626 C 1091.25 978.38 1082.16 972.34 1077.82 969.11 L 1078.21 967.543 C 1101.27 982.131 1124.32 996.226 1149.59 1006.65 C 1153.95 1008.45 1158.69 1010.06 1162.91 1011.99 C 1186.14 1021.65 1215.22 1025.35 1240.21 1024.46 C 1245.17 1024.28 1254.6 1024.53 1258.6 1021.72 C 1259.3 1017.4 1259.25 1015.87 1259.19 1011.43 C 1259.79 1014.07 1260.23 1018.38 1260.6 1021.2 C 1264.99 1024.65 1275.88 1020.15 1280.96 1018.73 C 1306.5 1011.55 1329.31 999.112 1349.6 982.052 C 1343.53 1000.91 1280.24 1022.1 1259.7 1024.7 C 1261.13 1027.74 1262.85 1032.46 1265.34 1034.38 C 1286.18 1035.75 1336.02 1007.59 1351.82 991.691 C 1353.37 990.135 1352.7 990.193 1354.26 990.709 C 1348.23 1001.04 1313.88 1020.59 1302.38 1025.13 C 1296.85 1027.31 1286.86 1030.99 1282.29 1033.62 C 1269.87 1035.67 1260.26 1038.59 1246.8 1040.09 C 1196.34 1045.72 1168.11 1032.83 1123.85 1018.59 C 1104.1 1009.07 1088.53 1002.05 1068.94 991.61 z"/>
<path fill="rgb(147,9,130)" d="M 944.974 763.681 C 964.977 741.603 1056.7 666.656 1082.59 654.308 C 1080.81 657.971 1066.69 666.413 1062.18 669.695 C 1065.06 677.313 1113.24 757.523 1117.46 760.192 C 1120.2 758.219 1123.39 754.849 1125.73 755.195 L 1126.28 755.744 C 1115.33 766.156 1103.47 775.817 1092.34 786.335 C 1063.94 813.159 1036.57 844.007 1008.35 870.588 C 1003.35 875.95 968.959 908.683 968.011 911.457 C 971.507 912.214 971.932 912.105 975.4 912.06 C 972.016 913.862 970.965 914.01 967.137 914.504 C 961.656 918.794 957.507 923.769 952.177 927.289 L 949.362 925.809 C 946.857 927.054 947.827 926.911 945.206 927.075 C 939.083 919.851 931.014 918.424 922.244 917.263 C 910.173 907.155 904.317 911.808 895.613 893.728 C 886.195 874.165 875.718 853.571 867.378 833.534 C 870.555 826.713 888.626 819.79 889.831 812.367 C 891.525 809.709 940.732 766.719 944.974 763.681 z"/>
<path fill="url(#Gradient4)" d="M 944.974 763.681 C 964.977 741.603 1056.7 666.656 1082.59 654.308 C 1080.81 657.971 1066.69 666.413 1062.18 669.695 C 1065.06 677.313 1113.24 757.523 1117.46 760.192 C 1120.2 758.219 1123.39 754.849 1125.73 755.195 L 1126.28 755.744 C 1115.33 766.156 1103.47 775.817 1092.34 786.335 C 1063.94 813.159 1036.57 844.007 1008.35 870.588 C 1008.64 863.63 1023.42 855.184 1028.72 847.363 C 1028.77 845.118 1015.4 828.941 1012.61 825.264 C 1000.8 809.718 991.951 796.485 983.999 778.408 C 979.991 769.298 974.703 752.162 969.352 744.516 C 964.294 749.137 950.654 762.892 944.974 763.681 z"/>
<path fill="url(#Gradient3)" d="M 1259.19 1011.43 C 1258.6 973.707 1252.25 931.551 1297.53 916.312 C 1312.32 911.366 1328.47 912.479 1342.44 919.405 C 1358.59 927.505 1367.6 939.479 1373.11 956.254 C 1372.88 961.333 1352.28 977.415 1349.6 982.052 C 1329.31 999.112 1306.5 1011.55 1280.96 1018.73 C 1275.88 1020.15 1264.99 1024.65 1260.6 1021.2 C 1260.23 1018.38 1259.79 1014.07 1259.19 1011.43 z"/>
<path fill="rgb(1,13,69)" d="M 1051.31 948.585 C 1058.92 932.946 1069.65 921.889 1086.56 916.327 C 1102.13 911.274 1119.09 912.721 1133.58 920.339 C 1169.82 939.673 1163.31 977.395 1162.91 1011.99 C 1158.69 1010.06 1153.95 1008.45 1149.59 1006.65 C 1124.32 996.226 1101.27 982.131 1078.21 967.543 C 1074.31 963.607 1056.7 952.424 1051.31 948.585 z"/>
<path fill="url(#Gradient2)" d="M 1306.5 831.85 C 1326.14 826.492 1346.41 837.984 1351.9 857.578 C 1357.39 877.173 1346.03 897.525 1326.48 903.144 C 1306.73 908.817 1286.14 897.33 1280.6 877.549 C 1275.06 857.769 1286.69 837.259 1306.5 831.85 z"/>
<path fill="url(#Gradient1)" d="M 1103.24 830.612 C 1123.53 829.206 1141.16 844.446 1142.7 864.732 C 1144.24 885.017 1129.11 902.742 1108.84 904.416 C 1088.37 906.105 1070.45 890.809 1068.89 870.333 C 1067.34 849.856 1082.75 832.03 1103.24 830.612 z"/>
<path fill="rgb(1,13,69)" d="M 1177.33 866.607 C 1182.21 864.85 1187.59 867.406 1189.31 872.301 C 1191.04 877.196 1188.45 882.558 1183.54 884.248 C 1178.68 885.922 1173.38 883.36 1171.67 878.512 C 1169.97 873.664 1172.49 868.347 1177.33 866.607 z"/>
<path fill="rgb(1,13,69)" d="M 1238.75 866.639 C 1241.97 865.357 1245.64 865.973 1248.27 868.236 C 1250.9 870.499 1252.05 874.036 1251.26 877.413 C 1250.47 880.79 1247.87 883.449 1244.51 884.313 C 1239.75 885.536 1234.86 882.851 1233.34 878.179 C 1231.81 873.507 1234.18 868.456 1238.75 866.639 z"/>
<path fill="rgb(1,13,69)" d="M 1208.23 866.519 C 1213.07 864.734 1218.43 867.228 1220.18 872.074 C 1221.93 876.92 1219.4 882.266 1214.54 883.982 C 1209.73 885.682 1204.45 883.181 1202.72 878.383 C 1200.98 873.584 1203.45 868.286 1208.23 866.519 z"/>
<path fill="rgb(25,8,121)" d="M 597.019 726.337 C 609.296 677.629 618.38 620.291 665.185 592.322 C 688.517 578.379 709.297 576.109 735.983 576.677 C 745.289 576.875 759.185 574.601 766.251 581.457 C 769.88 589.161 764.393 607.213 762.495 616.314 L 740.911 716.02 C 729.745 768.46 707.251 838.436 773.468 862.989 C 782.792 864.955 786.136 864.869 795.637 865.052 C 838.126 857.4 856.603 838.701 889.831 812.367 C 888.626 819.79 870.555 826.713 867.378 833.534 C 875.718 853.571 886.195 874.165 895.613 893.728 C 904.317 911.808 910.173 907.155 922.244 917.263 C 931.014 918.424 939.083 919.851 945.206 927.075 C 947.827 926.911 946.857 927.054 949.362 925.809 L 952.177 927.289 C 957.507 923.769 961.656 918.794 967.137 914.504 C 970.965 914.01 972.016 913.862 975.4 912.06 C 1006.71 909.629 1027.34 936.615 1051.31 948.585 C 1056.7 952.424 1074.31 963.607 1078.21 967.543 L 1077.82 969.11 C 1082.16 972.34 1091.25 978.38 1095.82 980.626 C 1116.68 990.871 1102.19 991.375 1105.29 1005.96 C 1100.16 1008.37 1076.96 993.53 1070.02 990.817 L 1068.94 991.61 C 1059.37 988.94 1037.65 974.321 1025.11 969.578 L 1023.5 970.132 C 1020.79 968.676 1018.61 967.514 1015.76 966.265 C 1011.91 971.004 1013.74 994.662 1013.25 1001.86 C 1013.08 1004.43 1016.4 1004.39 1016.74 1006.65 C 1015.16 1006.48 1004.61 1002.39 1002.42 1001.44 C 985.337 994.02 976.905 994.479 959.002 995.188 C 904.782 1010.72 857.588 1062.84 798.237 1070.58 C 787.917 1071.93 778.409 1072.12 768.013 1071.86 C 734.498 1073.17 709.236 1064.43 679.923 1048.57 C 673.315 1044.99 655.629 1033.75 650.584 1028.01 C 637.869 1018.68 619.533 996.151 611.495 982.652 C 561.924 899.413 576.297 813.51 597.019 726.337 z"/>
<path fill="rgb(54,20,192)" d="M 597.019 726.337 C 609.296 677.629 618.38 620.291 665.185 592.322 C 688.517 578.379 709.297 576.109 735.983 576.677 C 745.289 576.875 759.185 574.601 766.251 581.457 C 769.88 589.161 764.393 607.213 762.495 616.314 L 740.911 716.02 C 729.745 768.46 707.251 838.436 773.468 862.989 C 758.635 866.234 747.551 861.357 734.87 855.245 C 694.371 835.973 667.673 800.812 647.495 762 C 636.627 741.096 629.052 723.726 623.299 700.837 C 621.982 695.595 617.979 688.578 612.831 686.058 C 611.798 686.092 610.765 686.127 609.732 686.161 C 605.697 693.752 602.652 721.786 597.019 726.337 z"/>
<path fill="rgb(54,20,192)" d="M 975.4 912.06 C 1006.71 909.629 1027.34 936.615 1051.31 948.585 C 1056.7 952.424 1074.31 963.607 1078.21 967.543 L 1077.82 969.11 C 1082.16 972.34 1091.25 978.38 1095.82 980.626 C 1116.68 990.871 1102.19 991.375 1105.29 1005.96 C 1100.16 1008.37 1076.96 993.53 1070.02 990.817 L 1068.94 991.61 C 1059.37 988.94 1037.65 974.321 1025.11 969.578 L 1023.5 970.132 C 1020.79 968.676 1018.61 967.514 1015.76 966.265 C 1011.91 971.004 1013.74 994.662 1013.25 1001.86 C 1013.08 1004.43 1016.4 1004.39 1016.74 1006.65 C 1015.16 1006.48 1004.61 1002.39 1002.42 1001.44 C 985.337 994.02 976.905 994.479 959.002 995.188 C 904.782 1010.72 857.588 1062.84 798.237 1070.58 C 787.917 1071.93 778.409 1072.12 768.013 1071.86 C 734.498 1073.17 709.236 1064.43 679.923 1048.57 C 673.315 1044.99 655.629 1033.75 650.584 1028.01 C 649.691 1023.73 647.123 1022.09 643.549 1018.59 C 650.673 1021.11 657.862 1024 664.519 1027.21 C 697.873 1043.32 740.687 1043.3 776.072 1034.38 C 780.741 1033.2 785.37 1031.58 790.036 1030.49 C 834.852 1015.56 877.429 984.529 914.21 955.386 C 925.816 946.191 938.888 936.122 949.362 925.809 L 952.177 927.289 C 957.507 923.769 961.656 918.794 967.137 914.504 C 970.965 914.01 972.016 913.862 975.4 912.06 z"/>
<path fill="rgb(219,25,115)" d="M 975.4 912.06 C 1006.71 909.629 1027.34 936.615 1051.31 948.585 C 1056.7 952.424 1074.31 963.607 1078.21 967.543 L 1077.82 969.11 C 1082.16 972.34 1091.25 978.38 1095.82 980.626 C 1116.68 990.871 1102.19 991.375 1105.29 1005.96 C 1100.16 1008.37 1076.96 993.53 1070.02 990.817 L 1068.94 991.61 C 1059.37 988.94 1037.65 974.321 1025.11 969.578 C 1005.81 958.084 977.214 948.416 954.672 954.085 C 952.128 955.546 952.172 955.394 949.223 955.832 C 944.656 951.243 944.203 941.439 943.179 934.764 L 952.177 927.289 C 957.507 923.769 961.656 918.794 967.137 914.504 C 970.965 914.01 972.016 913.862 975.4 912.06 z"/>
<path fill="rgb(125,12,235)" d="M 949.362 925.809 L 952.177 927.289 L 943.179 934.764 C 944.203 941.439 944.656 951.243 949.223 955.832 C 952.172 955.394 952.128 955.546 954.672 954.085 C 952.283 957.107 952.133 956.954 948.81 958.605 C 932.345 964.776 918.677 974.535 903.998 984.118 C 875.302 1002.85 842.386 1026.3 809.52 1036.12 L 809.622 1035.15 C 814.312 1032.93 819.237 1032.52 821.907 1029.3 C 823.035 1025.19 822.709 1023.31 822.569 1018.97 C 813.455 1022.2 798.596 1031.29 790.036 1030.49 C 834.852 1015.56 877.429 984.529 914.21 955.386 C 925.816 946.191 938.888 936.122 949.362 925.809 z"/>
<path fill="rgb(147,9,130)" d="M 954.672 954.085 C 977.214 948.416 1005.81 958.084 1025.11 969.578 L 1023.5 970.132 C 1020.79 968.676 1018.61 967.514 1015.76 966.265 C 1011.91 971.004 1013.74 994.662 1013.25 1001.86 C 1013.08 1004.43 1016.4 1004.39 1016.74 1006.65 C 1015.16 1006.48 1004.61 1002.39 1002.42 1001.44 C 985.337 994.02 976.905 994.479 959.002 995.188 C 966.874 989.743 977.446 995.031 986.162 992.974 C 991.398 984.471 995.004 964.324 990.306 956.794 C 986.894 951.323 953.574 958.772 948.81 958.605 C 952.133 956.954 952.283 957.107 954.672 954.085 z"/>
<path fill="rgb(54,20,192)" d="M 889.831 812.367 C 888.626 819.79 870.555 826.713 867.378 833.534 C 875.718 853.571 886.195 874.165 895.613 893.728 C 904.317 911.808 910.173 907.155 922.244 917.263 C 915.174 917.742 869.332 910.773 861.588 905.132 C 850.324 896.925 839.961 876.058 837.289 862.64 C 838.206 859.789 838.479 859.634 838.326 856.711 C 837.712 856.012 837.098 855.313 836.484 854.614 C 826.074 857.878 806.083 869.381 795.637 865.052 C 838.126 857.4 856.603 838.701 889.831 812.367 z"/>
<path fill="rgb(125,12,235)" d="M 640.59 401.391 C 650.74 383.622 670.177 370.227 689.844 364.874 C 736.866 352.074 784.132 379.064 797.194 425.946 C 802.7 445.708 798.713 486.323 782.8 500.449 C 757.514 538.351 705.905 546.061 667.881 522.788 C 648.018 510.451 633.89 490.707 628.624 467.926 C 622.98 444.135 627.928 421.904 640.59 401.391 z"/>
<path fill="rgb(54,20,192)" d="M 640.59 401.391 L 641.397 403.351 C 640.263 405.666 639.201 407.796 637.963 410.069 C 654.775 420.11 656.929 430.046 678.286 432.67 C 689.166 434.007 708.231 453.354 718.343 458.959 C 731.344 466.98 742.247 476.142 755.086 484.199 C 760.771 488.037 772.379 501.219 777.606 504.096 C 779.942 501.881 779.68 501.426 782.8 500.449 C 757.514 538.351 705.905 546.061 667.881 522.788 C 648.018 510.451 633.89 490.707 628.624 467.926 C 622.98 444.135 627.928 421.904 640.59 401.391 z"/>
<path fill="rgb(173,4,97)" d="M 1016.74 1006.65 C 1016.4 1004.39 1013.08 1004.43 1013.25 1001.86 C 1013.74 994.662 1011.91 971.004 1015.76 966.265 C 1018.61 967.514 1020.79 968.676 1023.5 970.132 L 1025.11 969.578 C 1037.65 974.321 1059.37 988.94 1068.94 991.61 C 1088.53 1002.05 1104.1 1009.07 1123.85 1018.59 L 1122.42 1019.55 C 1119.03 1017.91 1111.17 1013.19 1108.13 1013.72 C 1101.69 1020.36 1100.76 1037.02 1105.41 1045 C 1110.87 1047.82 1122.85 1049.03 1124.85 1053.34 C 1109.9 1049.77 1032.4 1015.23 1016.74 1006.65 z"/>
</svg>
